<svg xmlns="http://www.w3.org/2000/svg" viewBox="0 0 800 800"><path d="M400 142.9c-51.8 0-93.7 41.9-93.7 93.7 0 38.9-31.3 70.3-70.3 70.3s-70.3-31.3-70.3-70.3C165.8 107.2 270.6 2.4 400 2.4s234.2 104.8 234.2 234.2c0 138.2-105.4 196.7-163.9 218.1v11.1c0 38.9-31.3 70.3-70.3 70.3s-70.3-31.3-70.3-70.3v-23.7c0-60 43.3-103.1 88.1-117.7 18.7-6.1 38.6-16.1 53.3-30.2 12.6-12.3 22.5-29.3 22.5-57.4 0-51.8-41.9-93.7-93.7-93.7zM306.3 705c0-51.7 41.9-93.7 93.7-93.7 51.7 0 93.7 41.9 93.7 93.7 0 51.7-41.9 93.7-93.7 93.7-51.7-.1-93.7-42-93.7-93.7"/></svg>
